<?xml version="1.0" encoding="UTF-8"?>
<svg id="Layer_1" data-name="Layer 1" xmlns="http://www.w3.org/2000/svg" viewBox="0 0 595.28 841.89">
  <defs>
    <style>
      .cls-1, .cls-2, .cls-3 {
        fill: #2a3890;
      }

      .cls-1, .cls-3 {
        stroke: #2a3890;
      }

      .cls-4 {
        fill: #c0c2c4;
        opacity: .5;
      }

      .cls-5, .cls-6, .cls-7, .cls-8, .cls-9 {
        fill: #fff;
      }

      .cls-5, .cls-10 {
        fill-rule: evenodd;
      }

      .cls-6, .cls-11, .cls-12, .cls-13, .cls-14, .cls-15, .cls-16, .cls-9, .cls-17, .cls-18, .cls-19 {
        stroke: #221e1f;
      }

      .cls-6, .cls-11, .cls-12, .cls-13, .cls-15, .cls-16, .cls-8, .cls-9, .cls-17, .cls-18, .cls-19 {
        stroke-miterlimit: 10;
      }

      .cls-6, .cls-11, .cls-9, .cls-18, .cls-19 {
        stroke-linecap: square;
      }

      .cls-6, .cls-15, .cls-19 {
        stroke-width: 3px;
      }

      .cls-20, .cls-10, .cls-14, .cls-21, .cls-22 {
        fill: #221e1f;
      }

      .cls-23 {
        fill: #f15a28;
      }

      .cls-11 {
        stroke-width: .51px;
      }

      .cls-11, .cls-12, .cls-17, .cls-18, .cls-19 {
        fill: none;
      }

      .cls-12 {
        stroke-width: 1.13px;
      }

      .cls-13 {
        fill: #ccc;
      }

      .cls-14 {
        stroke-width: .5px;
      }

      .cls-15 {
        fill: #e6e6e6;
      }

      .cls-24 {
        opacity: .29;
      }

      .cls-16 {
        fill: #b1b3b6;
      }

      .cls-8 {
        stroke: #fff;
      }

      .cls-9 {
        stroke-width: 1.2px;
      }

      .cls-21 {
        opacity: .37;
      }

      .cls-22 {
        opacity: .56;
      }

      .cls-25 {
        fill: #bed73a;
      }

      .cls-26 {
        fill: #999;
        opacity: .25;
      }

      .cls-3 {
        stroke-width: .05px;
      }
    </style>
  </defs>
  <path class="cls-4" d="M323.44,193.54h-51.2c-1.01,3.35-3.05,6.47-5.91,9.19v142.78c10.74,7.38,24.74,15.94,32.41,16.24,0,0,16.08-5.18,31.83-14.65v-143.28c-3.12-2.66-5.61-6.18-7.13-10.27Z"/>
  <path class="cls-26" d="M329.73,177.66c10.07,16.15,24.54,26.7,50.34,22.98v103.71c-8.18,32.3-34.61,57.13-81.18,73.28h-1.26c-46.57-16.15-73-40.99-81.18-73.28v-103.71c25.8,3.73,40.28-6.83,50.34-22.98h62.93Z"/>
  <path class="cls-19" d="M330.54,175.1c10.33,16.56,25.17,27.39,51.63,23.57v106.38c-8.39,33.12-35.5,58.6-83.26,75.16h-1.29c-47.76-16.56-74.87-42.04-83.26-75.16v-106.38c26.46,3.82,41.31-7.01,51.63-23.57h64.55Z"/>
  <path class="cls-9" d="M323.88,190.56c8.33,14.06,20.31,23.26,41.66,20.02v90.34c-6.77,28.13-28.64,49.77-67.17,63.83h-1.04c-38.53-14.06-60.4-35.7-67.17-63.83v-90.34c21.35,3.24,33.32-5.95,41.66-20.02h52.07Z"/>
  <path class="cls-11" d="M322.99,193.55c8.04,13.58,19.61,22.46,40.22,19.33v87.23c-6.54,27.16-27.65,48.05-64.87,61.63h-1.01c-37.21-13.58-58.33-34.47-64.86-61.63v-87.23c20.61,3.13,32.18-5.75,40.23-19.33h50.28Z"/>
  <path class="cls-8" d="M316.59,178.83c3.61-3.03,9.09-5.18,13.02-7.92-5.55.71-12.3,3.2-13.02,7.92"/>
  <path class="cls-17" d="M316.59,178.83c3.61-3.03,9.09-5.18,13.02-7.92-5.55.71-12.3,3.2-13.02,7.92Z"/>
  <path class="cls-8" d="M298.47,175.51c6.17-.21,11.9-2.59,13.26-6.63-2.53,2.92-9.07,4.49-11.44,4.37,0-3.05-.47-5.38-.47-8.43,4.52.75,7.86-1.56,9.53-5.96-2.79,2.73-8.17,5.97-9.53,3.93-.7-1.06-1-3.09-1.35-4.21-.36,1.11-.66,3.15-1.35,4.21-1.36,2.04-6.74-1.19-9.53-3.93,1.67,4.4,5.01,6.71,9.53,5.96,0,3.05-.47,5.38-.47,8.43-2.37.12-8.91-1.44-11.44-4.37,1.37,4.04,7.09,6.42,13.26,6.63"/>
  <path class="cls-17" d="M298.47,175.51c6.17-.21,11.9-2.59,13.26-6.63-2.53,2.92-9.07,4.49-11.44,4.37,0-3.05-.47-5.38-.47-8.43,4.52.75,7.86-1.56,9.53-5.96-2.79,2.73-8.17,5.97-9.53,3.93-.7-1.06-1-3.09-1.35-4.21-.36,1.11-.66,3.15-1.35,4.21-1.36,2.04-6.74-1.19-9.53-3.93,1.67,4.4,5.01,6.71,9.53,5.96,0,3.05-.47,5.38-.47,8.43-2.37.12-8.91-1.44-11.44-4.37,1.37,4.04,7.09,6.42,13.26,6.63Z"/>
  <path class="cls-8" d="M348.68,177.01c-2.37-2.81-12.39-4.95-15.5-1.01,6-1.33,11.67,2.82,15.5,1.01"/>
  <path class="cls-17" d="M348.68,177.01c-2.37-2.81-12.39-4.95-15.5-1.01,6-1.33,11.67,2.82,15.5,1.01Z"/>
  <path class="cls-8" d="M360.37,191.21c-1.19-1.22-7.56-10.4-15.3-9.78,5.02,1.78,7.84,9.9,15.3,9.78"/>
  <path class="cls-17" d="M360.37,191.21c-1.19-1.22-7.56-10.4-15.3-9.78,5.02,1.78,7.84,9.9,15.3,9.78Z"/>
  <path class="cls-7" d="M303.77,190.02c2.09-2.74,4.74-4.52,7.24-9.64-5.16-1.3-6.83,5.83-7.24,9.64"/>
  <path class="cls-17" d="M303.77,190.02c2.09-2.74,4.74-4.52,7.24-9.64-5.16-1.3-6.83,5.83-7.24,9.64Z"/>
  <path class="cls-8" d="M236.56,191.21c7.47.12,10.29-8,15.3-9.78-7.73-.62-14.11,8.56-15.3,9.78"/>
  <path class="cls-17" d="M236.56,191.21c7.47.12,10.29-8,15.3-9.78-7.73-.62-14.11,8.56-15.3,9.78Z"/>
  <path class="cls-8" d="M267.32,170.91c3.92,2.75,9.41,4.9,13.01,7.92-.71-4.73-7.47-7.21-13.01-7.92"/>
  <path class="cls-17" d="M267.32,170.91c3.92,2.75,9.41,4.9,13.01,7.92-.71-4.73-7.47-7.21-13.01-7.92Z"/>
  <path class="cls-8" d="M263.75,176c-3.11-3.93-13.12-1.8-15.49,1.01,3.83,1.81,9.5-2.34,15.49-1.01"/>
  <path class="cls-17" d="M263.75,176c-3.11-3.93-13.12-1.8-15.49,1.01,3.83,1.81,9.5-2.34,15.49-1.01Z"/>
  <path class="cls-7" d="M285.91,180.38c2.51,5.12,5.15,6.91,7.25,9.64-.42-3.81-2.09-10.94-7.25-9.64"/>
  <path class="cls-17" d="M285.91,180.38c2.51,5.12,5.15,6.91,7.25,9.64-.42-3.81-2.09-10.94-7.25-9.64Z"/>
  <path class="cls-7" d="M298.47,212.99c-.39-.17-.82-.32-1.35-.39-.9,3.78-5.36,8.46-1.17,11.07.55.13,1.79,3.54,2.38,4.55v.31s.08-.07.13-.13c.05.06.1.13.13.13v-.31c.6-1.01,1.84-4.42,2.39-4.55,4.19-2.61-.26-7.3-1.17-11.07-.53.07-.96.21-1.35.39"/>
  <path class="cls-13" d="M298.47,212.99c-.39-.17-.82-.32-1.35-.39-.9,3.78-5.36,8.46-1.17,11.07.55.13,1.79,3.54,2.38,4.55v.31s.08-.07.13-.13c.05.06.1.13.13.13v-.31c.6-1.01,1.84-4.42,2.39-4.55,4.19-2.61-.26-7.3-1.17-11.07-.53.07-.96.21-1.35.39Z"/>
  <path class="cls-7" d="M314.11,209.56c.95.11,3.59,2.94-.31,4.72-5.85,1.67-9.06-2.61-12.79-6.76,1.39,8.87,8.07,16.74,20.26,13.22,4.94-2.53,5.78-6.34,4.52-9.07-1.97-4.09-8.38-5.18-11.68-2.11"/>
  <path class="cls-7" d="M312.92,178.03c-9.84-3.87-12.22,10.8-11.24,20.55,6.13-17.36,34.05-26.42,39.85-8.34-.77,3.07-4.02,5.25-7.15,5.08,5.08,7.32,18.58,5.96,20.26-2.03,2.9,1.97,9.97.98,13.11,0-3.61-5.88-11-10.28-13.11-14.23,2.98.17,5.11-1.22,6.15-2.71-6.79-2.74-16.61-7.31-26.41-4.41v-6.1c-11.65.22-17.07,5.77-21.46,12.2M303.77,190.02c.42-3.81,2.09-10.94,7.25-9.64-2.51,5.12-5.16,6.91-7.25,9.64M316.59,178.83c.72-4.73,7.47-7.21,13.02-7.93-3.93,2.75-9.42,4.9-13.02,7.93M360.37,191.21c-7.46.12-10.28-8-15.3-9.78,7.74-.63,14.12,8.56,15.3,9.78M348.68,177.01c-3.83,1.81-9.5-2.34-15.5-1.01,3.11-3.94,13.12-1.8,15.5,1.01"/>
  <path class="cls-17" d="M305.86,198.7c3.48-4.04,7.94-6.78,13.02-5.42,0,1.69-2.29,1.49,0,5.08,2.45,2.72,6.36.93,8.34-2.03.7-13.6-21.09-7.87-21.37,2.36Z"/>
  <path class="cls-17" d="M283.13,214.28c-3.9-1.79-1.26-4.61-.31-4.72-3.29-3.07-9.7-1.98-11.67,2.11-1.25,2.73-.42,6.54,4.53,9.07,12.18,3.51,18.87-4.35,20.26-13.22-3.74,4.15-6.95,8.43-12.8,6.76Z"/>
  <path class="cls-16" d="M298.47,204.67c3.34,0,5.05.78,7.11-1.8-.83-2.94-3.36-2.69-7.11-2.65-3.75-.04-6.29-.29-7.12,2.65,2.06,2.59,3.77,1.8,7.12,1.8"/>
  <path class="cls-17" d="M298.47,204.67c3.34,0,5.05.78,7.11-1.8-.83-2.94-3.36-2.69-7.11-2.65-3.75-.04-6.29-.29-7.12,2.65,2.06,2.59,3.77,1.8,7.12,1.8Z"/>
  <path class="cls-7" d="M242.29,179.05c-2.1,3.95-9.49,8.36-13.11,14.23,3.13.98,10.21,1.97,13.11,0,1.67,7.99,15.18,9.35,20.26,2.03-3.13.17-6.38-2.01-7.15-5.08,5.8-18.08,33.71-9.02,39.84,8.34.98-9.75-1.4-24.41-11.24-20.55-4.38-6.43-9.8-11.98-21.46-12.2v6.1c-9.8-2.9-19.62,1.67-26.41,4.41,1.04,1.49,3.17,2.88,6.15,2.71M293.16,190.02c-2.09-2.73-4.74-4.52-7.25-9.64,5.15-1.3,6.83,5.83,7.25,9.64M236.56,191.21c1.19-1.22,7.57-10.4,15.3-9.78-5.02,1.78-7.84,9.9-15.3,9.78M280.34,178.83c-3.6-3.03-9.09-5.17-13.02-7.92,5.54.71,12.3,3.2,13.02,7.92M263.75,176c-5.99-1.33-11.66,2.82-15.49,1.01,2.38-2.81,12.38-4.94,15.49-1.01"/>
  <path class="cls-21" d="M312.92,181.03c-9.84-3.87-12.22,10.8-11.24,20.55,6.13-17.36,34.05-26.42,39.85-8.34-.77,3.07-4.02,5.25-7.15,5.08,5.08,7.32,18.58,5.96,20.26-2.03,2.9,1.97,9.97.98,13.11,0-3.61-5.88-11-10.28-13.11-14.23,2.98.17,5.11-1.22,6.15-2.71-6.79-2.74-16.61-7.31-26.41-4.41v-6.1c-11.65.22-17.07,5.77-21.46,12.2ZM303.77,193.02c.42-3.81,2.09-10.94,7.25-9.64-2.51,5.12-5.16,6.91-7.25,9.64ZM316.59,181.83c.72-4.73,7.47-7.21,13.02-7.93-3.93,2.75-9.42,4.9-13.02,7.93ZM360.37,194.21c-7.46.12-10.28-8-15.3-9.78,7.74-.63,14.12,8.56,15.3,9.78ZM348.68,180.01c-3.83,1.81-9.5-2.34-15.5-1.01,3.11-3.94,13.12-1.8,15.5,1.01Z"/>
  <path class="cls-21" d="M242.29,182.05c-2.1,3.95-9.49,8.36-13.11,14.23,3.13.98,10.21,1.97,13.11,0,1.67,7.99,15.18,9.35,20.26,2.03-3.13.17-6.38-2.01-7.15-5.08,5.8-18.08,33.71-9.02,39.84,8.34.98-9.75-1.4-24.41-11.24-20.55-4.38-6.43-9.8-11.98-21.46-12.2v6.1c-9.8-2.9-19.62,1.67-26.41,4.41,1.04,1.49,3.17,2.88,6.15,2.71ZM293.16,193.02c-2.09-2.73-4.74-4.52-7.25-9.64,5.15-1.3,6.83,5.83,7.25,9.64ZM236.56,194.21c1.19-1.22,7.57-10.4,15.3-9.78-5.02,1.78-7.84,9.9-15.3,9.78ZM280.34,181.83c-3.6-3.03-9.09-5.17-13.02-7.92,5.54.71,12.3,3.2,13.02,7.92ZM263.75,179c-5.99-1.33-11.66,2.82-15.49,1.01,2.38-2.81,12.38-4.94,15.49-1.01Z"/>
  <path class="cls-17" d="M291.07,198.7c-.28-10.23-22.07-15.96-21.37-2.36,1.99,2.96,5.89,4.74,8.34,2.03,2.29-3.59,0-3.39,0-5.08,5.08-1.36,9.54,1.37,13.02,5.42Z"/>
  <path class="cls-7" d="M295.92,178.03c1.83,4.73,2.65,5.87,2.38,10.17.01-.46.1-.85.16-1.27.05.43.14.82.16,1.27-.27-4.3.55-5.43,2.38-10.17,8.12-2.56,13.21-3.72,19.22-12.88-11.16-2.02-10.46,1.67-15.64,3.72,3.03-4.2,7.83-5.27,8.34-13.22-4.36-.67-6.78.81-8.34,2.04-.27-4.17-3.47-5.85-5.99-8.1v-.22s-.09.07-.13.11c-.05-.04-.09-.08-.13-.11v.22c-2.52,2.25-5.71,3.93-5.98,8.1-1.56-1.23-3.98-2.71-8.34-2.04.51,7.95,5.31,9.02,8.34,13.22-5.18-2.06-4.49-5.74-15.64-3.72,5.99,9.16,11.09,10.31,19.21,12.88M296.64,173.24c0-3.05.47-5.38.47-8.43-4.52.75-7.86-1.56-9.53-5.96,2.79,2.73,8.17,5.97,9.53,3.93.7-1.06.99-3.09,1.35-4.21.35,1.11.65,3.15,1.35,4.21,1.36,2.04,6.74-1.19,9.53-3.93-1.67,4.4-5.01,6.71-9.53,5.96,0,3.05.47,5.38.47,8.43,2.37.12,8.91-1.44,11.44-4.37-1.37,4.04-7.09,6.42-13.26,6.63-6.18-.21-11.9-2.59-13.27-6.63,2.53,2.92,9.07,4.49,11.44,4.37"/>
  <path class="cls-13" d="M295.92,178.03c1.83,4.73,2.65,5.87,2.38,10.17.01-.46.1-.85.16-1.27.05.43.14.82.16,1.27-.27-4.3.55-5.43,2.38-10.17,8.12-2.56,13.21-3.72,19.22-12.88-11.16-2.02-10.46,1.67-15.64,3.72,3.03-4.2,7.83-5.27,8.34-13.22-4.36-.67-6.78.81-8.34,2.04-.27-4.17-3.47-5.85-5.99-8.1v-.22s-.09.07-.13.11c-.05-.04-.09-.08-.13-.11v.22c-2.52,2.25-5.71,3.93-5.98,8.1-1.56-1.23-3.98-2.71-8.34-2.04.51,7.95,5.31,9.02,8.34,13.22-5.18-2.06-4.49-5.74-15.64-3.72,5.99,9.16,11.09,10.31,19.21,12.88ZM296.64,173.24c0-3.05.47-5.38.47-8.43-4.52.75-7.86-1.56-9.53-5.96,2.79,2.73,8.17,5.97,9.53,3.93.7-1.06.99-3.09,1.35-4.21.35,1.11.65,3.15,1.35,4.21,1.36,2.04,6.74-1.19,9.53-3.93-1.67,4.4-5.01,6.71-9.53,5.96,0,3.05.47,5.38.47,8.43,2.37.12,8.91-1.44,11.44-4.37-1.37,4.04-7.09,6.42-13.26,6.63-6.18-.21-11.9-2.59-13.27-6.63,2.53,2.92,9.07,4.49,11.44,4.37Z"/>
  <path class="cls-7" d="M378.42,350.28c7.36,1.76,14.71,3.52,20.84,6.15-3.67,1.76-7.35,4.39-11.03,7.03,2.45,5.27,3.68,9.67,4.9,14.94-7.36-4.4-19.62-10.55-35.55-10.55h20.84c-3.68-7.03-11.03-8.79-20.84-7.91v7.91h11.03"/>
  <path class="cls-23" d="M320.33,192.62v140.64c6.22.47,11.43,5.06,17.57,5.99,17.31-12.33,22.95-33.17,25.25-39.25l-.3-87.11c-4.85.95-23.57,5.24-42.52-20.26Z"/>
  <path class="cls-25" d="M260.27,342.15c4.27-.58,9.43-6.59,15.27-7.2v-143.96c-18.4,27.12-36.86,22.9-42.52,21.79v88.77c2.47,7.09,9.34,26.71,27.25,40.6Z"/>
  <path class="cls-15" d="M405.15,352.22c9.73,2.33,19.47,4.66,27.58,8.14-4.87,2.33-9.73,5.82-14.6,9.3,3.24,6.98,4.87,12.8,6.49,19.78-9.73-5.82-25.96-13.96-47.05-13.96l26.33-.62c-7.37-5.25-19.62-9.38-26.33-9.85v10.47h14.6"/>
  <path class="cls-7" d="M193.05,352.69c-9.74,2.33-19.47,4.66-27.58,6.98,4.87,3.49,9.73,5.82,14.6,10.47-3.25,6.98-4.87,12.8-6.49,18.62,9.73-4.66,25.96-12.8,47.05-12.8h-27.58c4.86-9.31,14.6-11.63,27.58-10.47v10.47h-14.6"/>
  <path class="cls-15" d="M193.05,352.69c-9.74,2.33-19.47,4.66-27.58,6.98,4.87,3.49,9.73,5.82,14.6,10.47-3.25,6.98-4.87,12.8-6.49,18.62,9.73-4.66,25.96-12.8,47.05-12.8l-24.6-.34c8.85-4.09,15.37-5.5,24.6-10.13v10.47h-14.6"/>
  <path class="cls-5" d="M405.58,375.96c0-1.16-1.62-1.16-3.24-2.33-63.28-26.75-133.04-23.26-209.29,2.33v-31.41c76.25-24.43,147.64-25.59,212.53,0v31.41Z"/>
  <path class="cls-12" d="M405.58,375.96c0-1.16-1.62-1.16-3.24-2.33-63.28-26.75-133.04-23.26-209.29,2.33v-31.41c76.25-24.43,147.64-25.59,212.53,0v31.41Z"/>
  <path class="cls-7" d="M405.58,375.96c0-1.16-1.62-1.16-3.24-2.33-63.28-26.75-133.04-23.26-209.29,2.33v-31.41c76.25-24.43,147.64-25.59,212.53,0v31.41Z"/>
  <g class="cls-24">
    <path class="cls-10" d="M251.99,310.26l-.29-.14-.29-.13-.29-.13-.37-.15-.73-.13-.81-.26-.88-.14-.87-.13h-.59l-.65.13-.59.14-.43.13-.29.27-.29.41-.15.26-.14.4-.07.28-.08.28v.92l.08.28.07.14.14.54.3.53.44.39.51.55.74.39.95.28,1.1.13,1.39.13h.58l.15-.13h.44l1.25-.13,1.24-.28,1.32-.39,1.32-.4,1.39-.54,1.54-.53,1.54-.54,1.68-.69,1.62-.52,1.68-.54,1.75-.55,1.84-.39,1.97-.55,2.05-.27,2.12-.25,2.21-.28h4.17l1.1.15,1.18.13,1.1.25,1.02.14.95.13.95.13.66.28.65.13.66.13.51.14.96.27.73.12.07.28-.29-.15h-.37l-.29-.13h-.45l-.58-.12-.73-.14-.81-.12-.88-.14h-.95l-.95-.13h-3.45l-.73.13h-.73l-1.68.26-1.76.27-1.76.53-1.83.68-1.83.81-1.91.92-1.83.81-1.83.94-.22.13h-.14l-.22.13-.15.12-1.97.94-1.91.94-1.97.94-1.91.81-1.9.8-1.83.53-1.83.4-1.75.28h-1.03l-1.24-.14h-1.17l-1.02-.28-1.03-.26-.88-.4-.88-.4-.73-.52-.73-.55-.59-.65-.59-.67-.44-.69-.43-.67-.3-.66-.29-.67-.15-.81-.07-.8v-.95l.07-.53.08-.55.22-.4.15-.4.3-.52.29-.28.37-.4.73-.66.74-.53.88-.39.8-.41.44-.14.51-.14h.45l.43-.14h.15l.66.14.66.14.74.14.73.41.95.39.88.66.8.68.73.81v.14ZM298.56,312.94l-1.02-.26-.88-.14-.73-.41-.58-.39-.51-.55-.29-.53-.22-.66v-.82l4.25.14v3.62ZM249.36,331.96h.81l.35.13h2.05l.88-.13,1.09-.4,1.17-.53,1.39-.69,1.61-1.06,1.98-1.62,2.27-2.13,2.57-2.68.95-.93.95-.81.87-.93.95-.8,1.91-1.48,1.98-1.47,1.97-1.07,2.12-.94,2.27-.81,2.57-.66,2.86-.4,3.07-.41h2.71l.6.13.5.14.44.14.08.27-.52-.13-.66-.14h-2.64l-1.54.14-1.47.54-1.38.53-1.4.8-1.31.95-1.32,1.07-1.17,1.07-1.17,1.07-.96.94-.87.8-.89.95-.8.8-1.76,1.73-1.68,1.48-1.54,1.34-1.53,1.34-1.39,1.08-1.32.94-1.17.94-1.17.67-2.05,1.07-1.98.78-1.83.54-1.75.27h-1.03l-.22-.13-.58-.14-.58-.12-.59-.27-.58-.26-1.1-.66-1.02-.82ZM294.38,313.6l-.07.28-.58.25-.8.55-1.03.67-1.1.79-.37.28-.37.39-.36.28-.3.25-.51.42-.37.41-.36.39-.36.4-.23.27-.14.26-.22.14-.15.13-.8,1.08-.74,1.07-.65,1.07-.66,1.06-.65,1.21-.59,1.2-.59,1.35-.66,1.34-.51,1.32-.52,1.35-.51,1.48-.51,1.61-.44,1.34-.51,1.33-.51,1.21-.59,1.07-.59,1.07-.59.95-.65.8-.66.67-.73.66-.73.54-.73.53-.73.41-.74.41-.8.12-.81.26h-2.56l-1.17-.26-1.1-.41-1.1-.66-.95-.81-.73-.67-.29-.39-.22-.4-.22-.54-.15-.41-.07-.4-.15-.41-.07-.4-.07-.4-.22-.82-.29-.52-.37-.52-.44-.41h-.22l-.22-.14h-.95l-.58.27-.66.54-.81.67.81-1.2.73-.94.43-.39.44-.28.45-.12.51-.13h.3l.51.13.44.12.44.15.44.27.43.4.37.53.44.67.36.92.44,1.1.51.79.44.53.51.41.51.39.52.15.44.13h.65l.66-.13.66-.28.66-.38.65-.54.73-.82.73-1.2.74-1.6.73-1.89.73-1.88.81-1.86.87-1.61.88-1.48,1.1-1.74,1.02-1.35.95-1.33.88-.95.88-.93,1.25-1.34.8-.66.81-.82.95-.79,1.02-.67.95-.8.96-.67,1.02-.67,1.1-.68,1.09-.67,1.1-.66,1.1-.41,1.17-.53v.13ZM297.54,314.13l.07.28-.37.53-.65.68-.74,1.06-.81,1.22-.51.8-.44.94-.52,1.07-.36,1.07-.37,1.08-.29,1.33-.15,1.21-.07,1.47v.79l.07.15v.4l.15,1.34.22,1.08.15,1.08.21.93.15.4.08.41.14.41.08.39.07.67.15.66.07.55.08.67v.53l.07.13v.42l-.07,1.07-.08.93-.22.94-.21.81-.38.79-.44.82-.51.65-.58.68-1.25,1.06-1.31,1.08-1.32,1.07-1.47.8-.58.4-.58.26-.59.28-.66.4.15-.13.07-.13.15-.14.06-.13.23-.28.21-.26.23-.13.29-.28.51-.79.59-.81.22-.39.29-.52.15-.55.22-.66.14-.68.07-.66.07-.95v-2.81l-.07-.67v-.94l-.07-.54v-.4l-.14-1.2-.08-.93v-3.21l.08-.95.14-1.07.15-.94.22-1.08.29-.93.37-.93.43-.94.3-.54.36-.54.3-.4.44-.53,1.32-1.88,1.32-1.59,1.09-1.33,1.1-1.23.88-.93.74-.81.58-.54.37-.41Z"/>
    <path class="cls-10" d="M345.12,310.26l.22-.14.29-.13.29-.13.36-.15.74-.13.81-.26.88-.14.88-.13h.58l.66.13.58.14.44.13.29.27.29.41.14.26.15.4.14.28v1.2l-.07.28v.14l-.22.54-.29.53-.44.39-.52.55-.72.39-.88.28-1.17.13-1.32.13h-.66l-.15-.13h-.44l-1.17-.13-1.32-.28-1.31-.39-1.32-.4-1.39-.54-1.54-.53-1.53-.54-1.69-.69-1.61-.52-1.68-.54-1.75-.55-1.84-.39-1.97-.55-1.98-.27-2.19-.25-2.2-.28h-4.18l-1.09.15-1.16.13-1.03.25-1.02.14-1.03.13-.88.13-.73.28-.65.13-.59.13-.59.14-.95.27-.66.12-.08.28.22-.15h.37l.37-.13h.37l.58-.12.73-.14.81-.12.87-.14h.95l.96-.13h3.43l.74.13h.74l1.67.26,1.76.27,1.75.53,1.84.68,1.82.81,1.91.92,1.83.81,1.83.94.22.13h.14l.22.13.14.12,1.98.94,1.98.94,1.9.94,1.9.81,1.9.8,1.83.53,1.83.4,1.75.28h1.03l1.24-.14h1.18l1.02-.28,1.02-.26.96-.4.8-.4.81-.52.66-.55.66-.65.52-.67.44-.69.44-.67.29-.66.3-.67.15-.81.07-.8v-.95l-.07-.53-.08-.55-.14-.4-.22-.4-.29-.52-.29-.28-.29-.4-.81-.66-.73-.53-.8-.39-.87-.41-.45-.14-.51-.14h-.44l-.37-.14h-.22l-.65.14-.66.14-.73.14-.73.41-.95.39-.88.66-.81.68-.66.81v.14ZM298.56,312.94l1.02-.26.89-.14.73-.41.59-.39.44-.55.29-.53.22-.66.07-.82-4.24.14v3.62ZM347.69,331.96h-.81l-.37.13h-2.04l-.88-.13-1.1-.4-1.17-.53-1.38-.69-1.61-1.06-1.98-1.62-2.27-2.13-2.56-2.68-.95-.93-.96-.81-.87-.93-.96-.8-1.9-1.48-1.9-1.47-2.06-1.07-2.12-.94-2.26-.81-2.57-.66-2.78-.4-3.16-.41h-2.7l-.59.13-.52.14-.43.14-.07.27.59-.13.59-.14h2.63l1.53.14,1.47.54,1.39.53,1.39.8,1.32.95,1.31,1.07,1.17,1.07,1.18,1.07.95.94.94.8.81.95.8.8,1.75,1.73,1.68,1.48,1.61,1.34,1.46,1.34,1.39,1.08,1.32.94,1.17.94,1.17.67,2.05,1.07,1.98.78,1.83.54,1.76.27h1.02l.22-.13.59-.14.58-.12.59-.27.58-.26,1.1-.66,1.02-.82ZM302.73,313.6l.07.28.52.25.88.55,1.01.67,1.11.79.29.28.36.39.37.28.37.25.44.42.37.41.44.39.3.4.22.27.14.26.22.14.15.13.8,1.08.74,1.07.66,1.07.65,1.06.65,1.21.59,1.2.66,1.35.58,1.34.52,1.32.51,1.35.51,1.48.51,1.61.45,1.34.5,1.33.52,1.21.59,1.07.58,1.07.59.95.66.8.66.67.74.66.73.54.73.53.73.41.74.41.8.12.81.26h2.56l1.17-.26,1.11-.41,1.09-.66.95-.81.73-.67.29-.39.22-.4.21-.54.15-.41.15-.4.07-.41.08-.4.07-.4.21-.82.3-.52.36-.52.45-.41h.22l.22-.14h.95l.59.27.66.54.8.67-.8-1.2-.73-.94-.44-.39-.43-.28-.45-.12-.51-.13h-.3l-.44.13-.51.12-.44.15-.45.27-.36.4-.44.53-.44.67-.37.92-.44,1.1-.52.79-.44.53-.51.41-.51.39-.52.15-.43.13h-.66l-.66-.13-.66-.28-.66-.38-.65-.54-.74-.82-.66-1.2-.73-1.6-.81-1.89-.73-1.88-.8-1.86-.88-1.61-.87-1.48-1.03-1.74-1.1-1.35-.95-1.33-.81-.95-.87-.93-1.33-1.34-.8-.66-.82-.82-.94-.79-.96-.67-.95-.8-1.02-.67-1.03-.67-1.1-.68-1.1-.67-1.1-.66-1.1-.41-1.1-.53v.13ZM299.51,314.13l-.08.28.37.53.66.68.73,1.06.89,1.22.43.8.52.94.44,1.07.44,1.07.3,1.08.29,1.33.15,1.21.07,1.47v.79l-.07.15v.4l-.15,1.34-.22,1.08-.15,1.08-.22.93-.15.4-.07.41-.08.41-.07.39-.15.67-.14.66-.07.55-.08.67v.53l-.06.13v.42l.06,1.07.08.93.21.94.3.81.29.79.44.82.51.65.58.68,1.24,1.06,1.31,1.08,1.4,1.07,1.38.8.59.4.59.26.66.28.59.4-.08-.13-.14-.13-.15-.14-.07-.13-.22-.28-.22-.26-.21-.13-.23-.28-.58-.79-.59-.81-.22-.39-.22-.52-.22-.55-.22-.66-.15-.68-.08-.66-.07-.95v-2.81l.07-.67v-.94l.08-.54.07-.4.07-1.2.07-.93v-3.21l-.07-.95-.15-1.07-.15-.94-.22-1.08-.29-.93-.37-.93-.43-.94-.29-.54-.29-.54-.37-.4-.37-.53-1.38-1.88-1.25-1.59-1.17-1.33-1.02-1.23-.96-.93-.73-.81-.59-.54-.37-.41Z"/>
  </g>
  <path class="cls-18" d="M322.99,193.55c8.04,13.58,19.61,22.46,40.22,19.33v87.23c-6.54,27.16-27.65,48.05-64.87,61.63h-1.01c-37.21-13.58-58.33-34.47-64.86-61.63v-87.23c20.61,3.13,32.18-5.75,40.23-19.33h50.28Z"/>
  <path class="cls-21" d="M305.86,201.7c3.48-4.04,7.94-6.78,13.02-5.42,0,1.69-2.29,1.49,0,5.08,2.45,2.72,6.36.93,8.34-2.03.7-13.6-21.09-7.87-21.37,2.36"/>
  <path class="cls-21" d="M291.07,201.03c-.28-10.23-22.07-15.96-21.37-2.36,1.99,2.96,5.89,4.75,8.34,2.03,2.29-3.59,0-3.39,0-5.08,5.08-1.36,9.54,1.37,13.02,5.42"/>
  <path class="cls-6" d="M405.58,375.96c0-1.16-1.62-1.16-3.24-2.33-63.28-26.75-133.04-23.26-209.29,2.33v-31.41c76.25-24.43,147.64-25.59,212.53,0v31.41Z"/>
  <g>
    <path class="cls-14" d="M285.54,253.59c.02-.5.12-1,.31-1.51.18-.51.66-1.03,1.43-1.57l1.33-.92c.32-.23.59-.47.82-.74.23-.27.35-.6.36-.99.01-.47-.13-.86-.44-1.17s-.74-.47-1.3-.47-1.01.18-1.29.53c-.28.35-.42.76-.43,1.22h-.74c0-.61.2-1.17.63-1.68.43-.51,1.05-.77,1.87-.77s1.44.23,1.89.7c.44.47.65,1.02.63,1.65-.02.63-.21,1.12-.55,1.47-.35.35-.72.66-1.11.93l-1.3.89c-.33.23-.59.5-.8.82-.21.32-.34.65-.4.98h4.28v.64h-5.2Z"/>
    <path class="cls-14" d="M295.08,245.56c.93,0,1.63.39,2.12,1.16.48.77.72,1.76.72,2.97s-.24,2.2-.72,2.97c-.48.78-1.19,1.16-2.12,1.16s-1.62-.39-2.1-1.16c-.48-.78-.72-1.77-.72-2.97s.24-2.19.72-2.97c.48-.77,1.18-1.16,2.1-1.16ZM295.08,246.26c-.64,0-1.12.33-1.46.98-.34.65-.51,1.47-.51,2.44s.17,1.8.51,2.46c.34.65.82.98,1.46.98s1.14-.33,1.48-.98c.33-.65.5-1.47.5-2.46s-.17-1.79-.5-2.44c-.33-.65-.83-.98-1.48-.98Z"/>
    <path class="cls-14" d="M302.13,253.67v-5.92h-1.62v-.63c.23,0,.44-.03.64-.08.2-.06.4-.15.59-.29.15-.11.27-.25.38-.44.1-.19.16-.39.16-.61h.61v7.97h-.77Z"/>
    <path class="cls-14" d="M309.04,253.67v-5.92h-1.62v-.63c.23,0,.44-.03.64-.08.2-.06.4-.15.59-.29.15-.11.27-.25.38-.44.1-.19.16-.39.16-.61h.61v7.97h-.77Z"/>
  </g>
  <path class="cls-22" d="M344.77,357.74s-32-7.67-88.67,2.17l7.17,4.33s26.33-7,75.33-2.17l6.17-4.33Z"/>
  <path class="cls-21" d="M381.19,366.74s12.08,3.74,19.96,7.29l-22.71.62-.04-8.71,2.79.79Z"/>
  <path class="cls-13" d="M305.86,198.7c3.48-4.04,7.94-6.78,13.02-5.42,0,1.69-2.29,1.49,0,5.08,2.45,2.72,6.36.93,8.34-2.03.7-13.6-21.09-7.87-21.37,2.36"/>
  <path class="cls-13" d="M291.07,198.7c-.28-10.23-22.07-15.96-21.37-2.36,1.99,2.96,5.89,4.74,8.34,2.03,2.29-3.59,0-3.39,0-5.08,5.08-1.36,9.54,1.37,13.02,5.42"/>
  <path class="cls-13" d="M312.92,178.03c-9.84-3.87-12.22,10.8-11.24,20.55,6.13-17.36,34.05-26.42,39.85-8.34-.77,3.07-4.02,5.25-7.15,5.08,5.08,7.32,18.58,5.96,20.26-2.03,2.9,1.97,9.97.98,13.11,0-3.61-5.88-11-10.28-13.11-14.23,2.98.17,5.11-1.22,6.15-2.71-6.79-2.74-16.61-7.31-26.41-4.41v-6.1c-11.65.22-17.07,5.77-21.46,12.2ZM303.77,190.02c.42-3.81,2.09-10.94,7.25-9.64-2.51,5.12-5.16,6.91-7.25,9.64ZM316.59,178.83c.72-4.73,7.47-7.21,13.02-7.93-3.93,2.75-9.42,4.9-13.02,7.93ZM360.37,191.21c-7.46.12-10.28-8-15.3-9.78,7.74-.63,14.12,8.56,15.3,9.78ZM348.68,177.01c-3.83,1.81-9.5-2.34-15.5-1.01,3.11-3.94,13.12-1.8,15.5,1.01Z"/>
  <path class="cls-13" d="M242.29,179.05c-2.1,3.95-9.49,8.36-13.11,14.23,3.13.98,10.21,1.97,13.11,0,1.67,7.99,15.18,9.35,20.26,2.03-3.13.17-6.38-2.01-7.15-5.08,5.8-18.08,33.71-9.02,39.84,8.34.98-9.75-1.4-24.41-11.24-20.55-4.38-6.43-9.8-11.98-21.46-12.2v6.1c-9.8-2.9-19.62,1.67-26.41,4.41,1.04,1.49,3.17,2.88,6.15,2.71ZM293.16,190.02c-2.09-2.73-4.74-4.52-7.25-9.64,5.15-1.3,6.83,5.83,7.25,9.64ZM236.56,191.21c1.19-1.22,7.57-10.4,15.3-9.78-5.02,1.78-7.84,9.9-15.3,9.78ZM280.34,178.83c-3.6-3.03-9.09-5.17-13.02-7.92,5.54.71,12.3,3.2,13.02,7.92ZM263.75,176c-5.99-1.33-11.66,2.82-15.49,1.01,2.38-2.81,12.38-4.94,15.49-1.01Z"/>
  <path class="cls-21" d="M219.77,368.66s-13.75,3.63-19.92,6.17l19.92.29v-6.46Z"/>
  <path class="cls-21" d="M314.11,211.56c.95.11,3.59,2.94-.31,4.72-5.85,1.67-9.06-2.61-12.79-6.76,1.39,8.87,8.07,16.74,20.26,13.22,4.94-2.53,5.78-6.34,4.52-9.07-1.97-4.09-8.38-5.18-11.68-2.11Z"/>
  <path class="cls-13" d="M314.11,209.56c.95.11,3.59,2.94-.31,4.72-5.85,1.67-9.06-2.61-12.79-6.76,1.39,8.87,8.07,16.74,20.26,13.22,4.94-2.53,5.78-6.34,4.52-9.07-1.97-4.09-8.38-5.18-11.68-2.11Z"/>
  <path class="cls-21" d="M283.13,216.28c-3.9-1.79-1.26-4.61-.31-4.72-3.29-3.07-9.7-1.98-11.67,2.11-1.25,2.73-.42,6.54,4.53,9.07,12.18,3.51,18.87-4.35,20.26-13.22-3.74,4.15-6.95,8.43-12.8,6.76"/>
  <path class="cls-13" d="M283.13,214.28c-3.9-1.79-1.26-4.61-.31-4.72-3.29-3.07-9.7-1.98-11.67,2.11-1.25,2.73-.42,6.54,4.53,9.07,12.18,3.51,18.87-4.35,20.26-13.22-3.74,4.15-6.95,8.43-12.8,6.76"/>
  <g>
    <g>
      <g>
        <path class="cls-2" d="M286.12,292.55c0,2.63-2.13,4.76-4.76,4.76h0c-2.63,0-4.76-2.13-4.76-4.76v-9.75c0-2.63,2.13-4.76,4.76-4.76h0c2.63,0,4.76,2.13,4.76,4.76v9.75Z"/>
        <path class="cls-3" d="M285.41,273.1c.03,2.02-1.76,3.68-4,3.72-2.24.03-4.08-1.58-4.12-3.6-.02-2.02,1.76-3.68,4-3.72,2.24-.03,4.08,1.58,4.11,3.6Z"/>
      </g>
      <g>
        <path class="cls-2" d="M316.2,292.55c0,2.63-2.13,4.76-4.76,4.76h0c-2.63,0-4.77-2.13-4.77-4.76v-9.75c0-2.63,2.13-4.76,4.77-4.76h0c2.63,0,4.76,2.13,4.76,4.76v9.75Z"/>
        <path class="cls-3" d="M315.49,273.1c.03,2.02-1.76,3.68-4,3.72-2.24.03-4.08-1.58-4.12-3.6-.02-2.02,1.76-3.68,4-3.72,2.24-.03,4.08,1.58,4.11,3.6Z"/>
      </g>
      <path class="cls-3" d="M301.72,265.19c.04,2.73-2.38,4.98-5.4,5.02-3.03.05-5.51-2.13-5.56-4.86-.04-2.73,2.38-4.98,5.41-5.02,3.02-.05,5.51,2.13,5.55,4.85Z"/>
      <path class="cls-2" d="M303.64,294.63c0,4.09-3.31,7.4-7.4,7.4h0c-4.09,0-7.4-3.31-7.4-7.4v-15.15c0-4.09,3.31-7.4,7.4-7.4h0c4.08,0,7.4,3.31,7.4,7.4v15.15Z"/>
    </g>
    <path class="cls-1" d="M269.78,281.18s-1.13.71-2.63,2.67c-.71,1-1.46,2.4-1.82,4.22-.37,1.8-.28,4.01.46,6.15,1.46,4.34,5.14,8.05,9.38,10.67,4.25,2.77,9.27,4.65,14.41,5.62,5.15.98,10.4,1.11,15.34.65,4.97-.51,9.51-1.82,13.37-3.18,7.81-3,12.57-6.87,13.12-7.28,2.17-1.75,3.28-4.06,2.66-4.99-.64-.94-2.71-.21-4.72,1.4-.47.36-4.84,4.21-12.02,7.39-3.67,1.5-8,2.99-12.68,3.71-4.72.69-9.82.83-14.82.15-5-.67-9.92-2.22-14.13-4.69-4.26-2.35-7.84-5.68-9.39-9.72-1.65-4.06-.41-8.06.95-9.99,1.39-2.01,2.54-2.76,2.51-2.79Z"/>
  </g>
  <g>
    <path class="cls-20" d="M250.87,240.29h-12.77v-1.57h5.52v-2.72h-3.66v-6.22h9.07v1.57h-7.33v3.08h7.56v1.57h-3.9v2.72h5.5v1.57Z"/>
    <path class="cls-20" d="M256.84,232.04c0,.98.28,2.11.82,3.4.53,1.29,1.53,2.4,2.99,3.35l-1.39,1.52c-.62-.49-1.25-1.18-1.89-2.06-.64-.88-1.1-1.71-1.39-2.47-.27.86-.77,1.74-1.48,2.64-.72.9-1.37,1.57-1.95,2.01l-1.56-1.25c2.03-1.58,3.22-3.05,3.57-4.42.35-1.36.55-3.07.6-5.12l1.83.17c-.02.41-.04.79-.07,1.14-.03.35-.05.71-.07,1.09ZM263.11,241.91h-1.74v-13.36h1.74v13.36Z"/>
    <path class="cls-20" d="M269.11,229.61c1.07,0,1.96.3,2.69.9.72.6,1.08,1.35,1.08,2.27s-.36,1.62-1.08,2.2c-.72.58-1.62.87-2.69.87s-1.95-.29-2.67-.87c-.72-.58-1.08-1.31-1.08-2.2s.36-1.67,1.08-2.27c.72-.6,1.61-.9,2.67-.9ZM276.58,241.61h-9.53v-4.88h1.72v3.3h7.8v1.58ZM269.11,234.27c.43,0,.87-.11,1.34-.34.46-.22.69-.61.69-1.16s-.23-.98-.69-1.22c-.46-.25-.91-.37-1.34-.37s-.87.12-1.33.37c-.45.25-.68.65-.68,1.22s.23.94.68,1.16c.45.23.9.34,1.33.34ZM277.89,234.47h-1.86v4.06h-1.76v-9.99h1.76v4.35h1.86v1.58Z"/>
    <path class="cls-20" d="M280.78,233.9c.17-.17.41-.51.71-1.01s.47-1.07.51-1.7h-2.75v-1.56h7.23v1.56h-2.69c.05.58.19,1.11.43,1.58.23.48.51.86.82,1.15.24.22.58.47,1.02.75.44.28.89.52,1.36.72l-1.11,1.44c-.31-.14-.68-.36-1.11-.65-.43-.29-.79-.58-1.08-.85-.21-.2-.42-.42-.64-.67-.21-.25-.41-.53-.59-.86-.19.34-.41.66-.67.96-.25.3-.48.54-.68.73-.24.22-.54.47-.89.75-.35.28-.74.52-1.15.73l-1.38-1.32c.5-.19,1-.46,1.49-.81.49-.35.88-.66,1.17-.94ZM290.58,241.64h-9.54v-4.66h1.74v3.09h7.8v1.57ZM290.11,238.62h-1.75v-4.8h-2.28v-1.58h2.28v-3.7h1.75v10.08Z"/>
    <path class="cls-20" d="M301.54,238.82c-.57.16-1.62.34-3.17.55-1.54.2-3.35.31-5.45.31v-9.41h6.86v1.58h-5.12v6.25c.89,0,2.02-.07,3.39-.22,1.37-.14,2.44-.34,3.21-.59l.27,1.53ZM303.58,241.91h-1.74v-13.36h1.74v13.36Z"/>
    <path class="cls-20" d="M312.21,236.64c.29.34.63.7,1.01,1.07.38.38.86.73,1.42,1.06l-1.15,1.41c-.34-.23-.68-.49-1-.79-.33-.3-.64-.59-.91-.88-.22-.25-.51-.65-.87-1.19-.36-.54-.58-.95-.66-1.23-.09.32-.3.75-.64,1.3-.33.55-.63.97-.89,1.27-.27.31-.53.6-.78.85-.25.26-.56.51-.94.75l-1.37-1.26c.47-.26.89-.57,1.28-.92.38-.36.75-.77,1.12-1.25.31-.41.6-1.04.88-1.89.28-.85.42-1.66.42-2.44v-.71h-2.78v-1.59h7.17v1.57l-2.61.02v.68c.02,1.11.16,1.98.42,2.62.26.64.55,1.16.88,1.57ZM318.4,235.7h-1.85v6.21h-1.74v-13.36h1.74v5.58h1.85v1.58Z"/>
    <path class="cls-20" d="M323.64,229.59c1.07,0,1.91.32,2.53.97.61.64.92,1.41.92,2.29s-.31,1.61-.93,2.23c-.62.62-1.46.92-2.52.92s-1.84-.29-2.5-.88c-.66-.58-.98-1.34-.98-2.27,0-.85.29-1.61.85-2.26.57-.66,1.45-.99,2.62-.99ZM331.14,241.62h-9.5v-4.45h1.74v2.88h7.75v1.57ZM323.64,234.42c.53,0,.95-.16,1.27-.48.32-.32.47-.69.47-1.1s-.16-.79-.47-1.15c-.31-.36-.74-.53-1.27-.53-.64,0-1.09.18-1.36.53-.27.35-.41.74-.41,1.15s.14.76.41,1.09c.28.33.73.49,1.36.49ZM330.6,238.46h-1.74v-9.91h1.74v9.91Z"/>
    <path class="cls-20" d="M337.02,231.65c-.04.83.23,1.59.81,2.28.58.69,1.13,1.2,1.67,1.53l-1.32,1.2c-.43-.35-.85-.77-1.26-1.27-.41-.5-.73-.95-.96-1.35-.24.4-.55.86-.94,1.37-.38.52-.87.99-1.45,1.43l-1.52-1.06c1.01-.77,1.82-1.59,2.42-2.45.6-.86.9-2.16.9-3.88l1.79.12c-.03.35-.06.69-.08,1.02-.02.33-.04.69-.06,1.06ZM344.82,241.64h-9.87v-4.75h1.74v3.18h8.13v1.57ZM341.56,238.11h-1.68v-4.44h-1.74v-1.58h1.74v-3.15h1.68v9.16ZM344.38,238.55h-1.68v-10h1.68v10Z"/>
    <path class="cls-20" d="M354.63,239.61c-.46.1-1.44.19-2.94.26-1.5.07-3.13.11-4.89.11v-9.77h6.77v1.58h-5.03v2.16h4.12v1.5h-4.12v2.95c.89,0,1.91-.02,3.08-.06,1.16-.04,2.1-.14,2.83-.3l.18,1.56ZM357.72,241.91h-1.74v-6.39h-2.57v-1.57h2.57v-5.4h1.74v13.36Z"/>
  </g>
  <g>
    <path class="cls-20" d="M204.75,350.24l.92-.24,1.55,5.99c.21.83.67,1.39,1.37,1.7.63.27,1.35.31,2.15.1.73-.19,1.3-.55,1.71-1.08.47-.62.6-1.34.38-2.16l-1.55-5.99.98-.25,1.52,5.87c.28,1.08.12,2.06-.48,2.92-.56.79-1.33,1.31-2.3,1.56-1.12.29-2.11.23-2.95-.19-.89-.43-1.48-1.2-1.77-2.31l-1.53-5.91Z"/>
    <path class="cls-20" d="M213.49,348.01l3.07-.72c.82-.19,1.53-.22,2.13-.07.84.2,1.36.75,1.57,1.63.14.61.09,1.15-.16,1.61-.25.47-.72.9-1.42,1.31.15.02.28.05.39.08.11.03.21.07.29.11.33.17.63.47.9.89l1.93,2.92-1.05.25-1.07-1.8c-.55-.9-1.04-1.45-1.47-1.67-.37-.21-.92-.24-1.63-.07l-1.38.32,1,4.28-.94.22-2.17-9.29ZM216.92,348.07l-2.31.54.81,3.46,1.42-.33c.57-.13,1.04-.3,1.4-.5.37-.2.64-.44.83-.74.13-.19.22-.41.28-.65.06-.25.06-.48,0-.71-.1-.44-.36-.75-.79-.96-.46-.23-1.01-.26-1.65-.11Z"/>
    <path class="cls-20" d="M221.16,346.23l3.2-.68c.8-.17,1.47-.14,2.01.09.63.27,1.02.77,1.17,1.5.13.6.04,1.15-.26,1.65-.08.15-.2.29-.34.43s-.31.28-.49.41c.85-.04,1.51.16,1.98.59.36.33.59.74.69,1.22.17.79,0,1.5-.48,2.15-.46.64-1.1,1.04-1.92,1.21l-3.6.76-1.97-9.34ZM224.48,346.39l-2.2.46.68,3.2,1.77-.37c.71-.15,1.23-.43,1.54-.83.31-.4.42-.86.31-1.37-.08-.4-.29-.71-.62-.94-.39-.23-.88-.29-1.48-.16ZM225.16,350.45l-2.04.43.77,3.67,2.26-.48c.68-.14,1.21-.43,1.57-.87.36-.46.48-.97.36-1.53-.12-.57-.43-.96-.94-1.17-.5-.21-1.17-.23-2-.05Z"/>
    <path class="cls-20" d="M232.25,343.98l.92-.17,5.26,8.72-1.1.21-1.73-3-3.56.67-.57,3.43-1.04.2,1.83-10.05ZM235.18,348.97l-2.24-3.95-.77,4.52,3.02-.57Z"/>
    <path class="cls-20" d="M239.26,352.39l-1.55-9.42.87-.14,7.1,7.03-1.31-7.98.86-.14,1.55,9.42-.87.14-7.1-7.01,1.31,7.97-.86.14Z"/>
    <path class="cls-20" d="M256.33,340.87l.16,1.22c-.23-.15-.46-.28-.7-.39-.23-.11-.46-.19-.68-.25-.51-.16-1.02-.21-1.52-.14-.63.08-1.13.31-1.5.68-.38.38-.53.79-.48,1.23.09.64.62,1.06,1.62,1.26.46.09.92.18,1.38.27.46.08.92.17,1.39.25,1.02.33,1.59.95,1.71,1.86.12.88-.13,1.64-.74,2.27-.58.59-1.36.95-2.33,1.08-.64.08-1.28.04-1.91-.13-.36-.09-.8-.26-1.32-.51l-.16-1.23c.69.47,1.37.78,2.04.92.22.05.43.08.64.09.21,0,.41,0,.61-.03.64-.08,1.17-.32,1.57-.7.44-.42.63-.91.55-1.49-.09-.69-.63-1.16-1.61-1.4-.47-.08-.93-.16-1.38-.25s-.91-.17-1.36-.25c-1-.31-1.56-.92-1.68-1.82-.1-.76.12-1.41.65-1.96.55-.57,1.28-.92,2.2-1.04.56-.07,1.14-.04,1.73.09.3.06.67.18,1.12.37Z"/>
    <path class="cls-20" d="M261.45,339.6l.93-.1,4.58,9.1-1.11.12-1.5-3.12-3.61.4-.83,3.37-1.05.12,2.58-9.89ZM264,344.79l-1.94-4.11-1.11,4.45,3.05-.34Z"/>
    <path class="cls-20" d="M267.03,339.01l5.92-.53.08.84-4.96.45.32,3.53,4.75-.43.07.78-4.75.43.39,4.37-.96.08-.85-9.51Z"/>
    <path class="cls-20" d="M274.01,338.38l5.93-.42.06.84-4.97.35.23,3.29,4.78-.34.06.84-4.78.34.27,3.73,5-.36.06.84-5.96.43-.68-9.53Z"/>
    <path class="cls-20" d="M280.91,337.9l7.36-.38.04.84-3.2.17.45,8.69-.95.05-.45-8.69-3.21.17-.04-.84Z"/>
    <path class="cls-20" d="M288.95,337.49l1.14-.03,3.05,4.31,2.74-4.48,1.19-.04-3.44,5.34.13,4.31-.95.03-.13-4.31-3.73-5.13Z"/>
    <path class="cls-20" d="M301.88,337.18h2.29c.84,0,1.55.12,2.12.33.24.09.46.2.67.34.21.13.41.3.59.48.45.45.78.98,1.02,1.61.23.62.35,1.28.35,1.96,0,1.52-.44,2.71-1.31,3.58-.88.85-2.08,1.27-3.61,1.27h-2.14s.02-9.56.02-9.56ZM303.79,338.02h-.95s-.02,7.87-.02,7.87h1.57c.92,0,1.69-.31,2.33-.94.74-.74,1.11-1.76,1.12-3.08,0-.26-.01-.5-.04-.73-.03-.23-.07-.45-.13-.66-.18-.62-.49-1.15-.95-1.58-.33-.32-.72-.55-1.15-.68-.42-.13-1.01-.2-1.78-.2Z"/>
    <path class="cls-20" d="M310.14,337.21l5.94.14-.02.84-4.98-.12-.08,3.3,4.8.11-.02.84-4.8-.11-.09,3.74,5.01.12-.02.84-5.98-.14.22-9.55Z"/>
    <path class="cls-20" d="M323.19,338.33l-.05,1.23c-.2-.19-.41-.36-.62-.5-.21-.15-.42-.27-.62-.37-.48-.25-.97-.38-1.47-.41-.63-.03-1.16.11-1.59.41-.44.31-.66.68-.68,1.13-.03.65.43,1.16,1.37,1.52.44.17.88.34,1.31.5.43.16.88.32,1.32.49.95.5,1.4,1.21,1.36,2.13-.04.89-.41,1.59-1.13,2.11-.68.48-1.5.7-2.48.66-.65-.03-1.27-.18-1.86-.46-.34-.15-.75-.4-1.21-.73l.05-1.24c.6.59,1.22,1.01,1.85,1.26.21.09.41.16.61.2.2.04.4.07.61.08.65.03,1.2-.11,1.66-.42.51-.34.78-.79.8-1.37.03-.7-.42-1.25-1.34-1.65-.45-.16-.89-.32-1.32-.48s-.86-.33-1.3-.48c-.93-.48-1.38-1.17-1.34-2.08.03-.76.36-1.37.98-1.82.64-.47,1.42-.68,2.34-.64.57.02,1.13.15,1.69.39.29.11.63.3,1.04.56Z"/>
    <path class="cls-20" d="M325.28,337.78l.95.05-.54,9.53-.95-.06.54-9.53Z"/>
    <path class="cls-20" d="M334.92,339.16l-.09,1.26c-.42-.43-.82-.76-1.22-.98-.47-.28-.96-.44-1.47-.47-1.03-.08-1.91.29-2.66,1.09-.71.73-1.1,1.64-1.18,2.72-.08,1.1.2,2.08.83,2.94.6.78,1.32,1.21,2.14,1.27.66.05,1.22-.12,1.7-.51.52-.43.81-1.02.86-1.77l.05-.73-3.13-.23.06-.84,4.1.3-.35,4.76-.84-.06-.05-1.16c-.31.34-.63.59-.97.77-.53.28-1.09.4-1.69.35-1.09-.08-2.01-.62-2.75-1.61-.77-1-1.1-2.18-1-3.54.1-1.4.62-2.55,1.56-3.45.94-.9,2.05-1.3,3.35-1.21.57.04,1.11.19,1.64.44.28.13.64.34,1.09.65Z"/>
    <path class="cls-20" d="M335.95,348.09l.93-9.5.87.09,5.05,8.62.79-8.04.87.09-.93,9.5-.87-.09-5.05-8.61-.79,8.03-.87-.09Z"/>
    <path class="cls-20" d="M356.72,341.65l-.16,1.22c-.26-.33-.57-.62-.93-.89-.56-.4-1.15-.64-1.76-.73-.94-.12-1.8.16-2.59.87-.39.35-.7.75-.93,1.19-.23.44-.38.93-.45,1.46-.15,1.09.07,2.06.64,2.93.56.87,1.32,1.37,2.28,1.5.45.06.92.03,1.42-.09.5-.12,1.01-.33,1.55-.65l-.16,1.17c-1.16.43-2.17.59-3.05.48-1.13-.15-2.07-.72-2.8-1.71-.79-1.06-1.09-2.3-.9-3.72.18-1.38.77-2.48,1.75-3.32,1-.84,2.13-1.18,3.41-1,.5.07.97.21,1.41.42.44.21.86.5,1.26.86Z"/>
    <path class="cls-20" d="M357.94,341.06l5.87.92-.13.83-4.92-.77-.51,3.26,4.74.74-.13.83-4.74-.74-.58,3.69,4.96.77-.13.83-5.91-.92,1.48-9.44Z"/>
    <path class="cls-20" d="M363.37,351.58l1.69-9.39.86.16,4.34,8.99,1.43-7.96.86.15-1.69,9.39-.86-.16-4.35-8.98-1.43,7.94-.86-.16Z"/>
    <path class="cls-20" d="M373.56,343.73l7.21,1.48-.17.82-3.14-.64-1.75,8.53-.93-.19,1.75-8.53-3.15-.65.17-.82Z"/>
    <path class="cls-20" d="M381.73,345.41l5.79,1.32-.19.82-4.85-1.11-.73,3.22,4.68,1.07-.19.82-4.68-1.07-.83,3.64,4.89,1.12-.19.82-5.83-1.33,2.13-9.32Z"/>
    <path class="cls-20" d="M388.75,347.04l3.06.77c.82.21,1.46.51,1.93.91.65.57.87,1.29.65,2.17-.15.61-.45,1.06-.88,1.36-.44.3-1.06.47-1.86.51.12.09.22.17.31.25.09.08.16.15.2.23.22.31.35.71.39,1.2l.38,3.48-1.05-.26-.13-2.09c-.08-1.05-.26-1.77-.54-2.16-.24-.36-.71-.63-1.42-.81l-1.37-.34-1.07,4.26-.93-.23,2.33-9.26ZM391.78,348.67l-2.3-.58-.87,3.45,1.42.36c.57.14,1.06.21,1.47.2.42,0,.78-.1,1.08-.27.2-.11.38-.26.55-.45s.27-.4.33-.63c.11-.43.02-.84-.26-1.21-.31-.41-.78-.7-1.42-.86Z"/>
  </g>
</svg>